<?xml version="1.0" standalone="no"?><!DOCTYPE svg PUBLIC "-//W3C//DTD SVG 1.1//EN" "http://www.w3.org/Graphics/SVG/1.1/DTD/svg11.dtd"><svg t="1697737521358" class="icon" viewBox="0 0 1024 1024" version="1.1" xmlns="http://www.w3.org/2000/svg" p-id="3977" xmlns:xlink="http://www.w3.org/1999/xlink" width="200" height="200"><path d="M473.107692 928.317538c-94.646154 0-182.646154-0.615385-249.107692-1.723076-123.446154-2.092308-128.738462-4.923077-133.415385-7.384616-25.476923-13.415385-23.876923-55.261538-20.307692-85.538461l29.292308 3.323077c-4.923077 42.461538 1.969231 53.292308 4.061538 55.507692 19.692308 3.2 155.569231 6.4 384.738462 6.276923 191.507692-0.123077 349.292308-2.707692 380.923077-6.030769 3.076923-6.4 7.261538-20.307692 9.476923-50.461539l29.415384 2.092308c-2.584615 36.430769-8.492308 59.076923-18.584615 71.261538l-2.461538 2.953847-3.569231 1.353846c-4.184615 1.6-11.076923 4.307692-134.523077 6.4-71.015385 1.230769-164.430769 1.969231-262.892308 1.96923h-13.046154z m-370.830769-36.061538z" fill="#1C1B55" p-id="3978"></path><path d="M89.846154 873.179077l12.184615 22.030769c250.215385 3.692308 383.015385 5.784615 398.276923 6.276923 15.261538 0.492308 139.076923-1.6 371.323077-6.276923l6.4-22.030769H89.846154z" fill="#80CFF5" p-id="3979"></path><path d="M506.953846 902.102154h-6.769231c-15.138462-0.492308-149.169231-2.584615-398.276923-6.276923h-0.36923l-12.8-23.261539H878.769231l-6.769231 23.261539h-0.492308c-210.461538 4.184615-332.8 6.276923-364.553846 6.276923z m-404.676923-7.507692c248.861538 3.692308 382.769231 5.784615 397.907692 6.276923 15.138462 0.492308 139.938462-1.6 370.83077-6.276923l6.030769-20.8H90.830769l11.446154 20.8z" fill="#979797" p-id="3980"></path><path d="M809.846154 551.948308c-5.046154 0-10.092308-2.584615-12.8-7.384616-4.061538-7.015385-1.723077-16.123077 5.415384-20.184615 15.753846-9.107692 20.676923-13.292308 22.03077-14.646154 0.492308-1.230769 1.476923-5.046154 1.96923-14.030769l10.338462-321.230769v-0.861539c0-14.153846-11.446154-25.6-25.6-25.6l-647.507692 0.123077c-13.907692 0-25.353846 11.2-25.6 25.107692v0.615385l0.123077 310.892308 1.96923 18.953846c0.738462 7.261538 5.538462 13.415385 12.307693 16l4.676923 1.723077c7.630769 2.830769 11.446154 11.446154 8.615384 19.076923-2.830769 7.630769-11.446154 11.446154-19.076923 8.615384l-4.676923-1.723076c-17.353846-6.523077-29.292308-22.153846-31.261538-40.492308l-2.092308-19.692308c0-0.492308-0.123077-0.984615-0.123077-1.476923v-311.261538-0.738462c0-30.4 24.738462-55.138462 55.138462-55.138461h647.507692c30.4 0 55.138462 24.738462 55.138462 55.138461v1.723077l-10.338462 321.476923v0.492308c-0.861538 12.923077-2.584615 21.292308-5.907692 27.2-3.2 5.661538-9.723077 11.815385-32.861539 25.353846-2.338462 1.353846-4.923077 1.969231-7.384615 1.969231z m15.138461-42.584616z" fill="#1C1B55" p-id="3981"></path><path d="M168.615385 145.671385h631.015384c16.369231 0 29.538462 13.169231 29.538462 29.538461v0.369231l-3.446154 327.261538c-0.123077 10.092308-8.369231 18.338462-18.461539 18.215385l-649.723076-0.984615c-10.215385 0-18.461538-8.246154-18.461539-18.461539v-326.4c0-16.369231 13.169231-29.538462 29.538462-29.538461z" fill="#FFFFFF" p-id="3982"></path><path d="M151.384615 553.056h668.061539c18.338462 0 33.723077 13.907692 35.569231 32.246154l25.107692 257.353846c0.615385 6.030769-3.815385 11.446154-9.969231 12.061538H96c-6.153846 0-11.076923-4.923077-11.076923-11.076923 0-0.492308 0-0.861538 0.123077-1.353846l31.015384-257.846154c2.092308-17.846154 17.230769-31.384615 35.323077-31.384615z" fill="#D4F1FF" p-id="3983"></path><path d="M869.046154 884.256H96c-22.4 0-40.615385-18.215385-40.615385-40.615385 0-1.6 0.123077-3.2 0.246154-4.8l31.015385-257.846153c3.938462-32.738462 31.753846-57.476923 64.738461-57.476924h668.061539c33.723077 0 61.661538 25.353846 64.984615 58.953847l25.107693 257.230769c2.215385 22.276923-14.153846 42.215385-36.43077 44.430769-1.353846 0.123077-2.707692 0.123077-4.061538 0.123077zM151.384615 553.056c-18.092308 0-33.230769 13.538462-35.446153 31.384615l-30.892308 257.846154c0 0.492308-0.123077 0.861538-0.123077 1.353846 0 6.153846 4.923077 11.076923 11.076923 11.076923h774.153846c2.953846-0.246154 5.538462-1.723077 7.507692-3.938461 1.846154-2.338462 2.707692-5.169231 2.461539-8.123077l-25.107692-257.353846c-1.846154-18.338462-17.107692-32.246154-35.569231-32.246154H151.384615z" fill="#1C1B55" p-id="3984"></path><path d="M344.123077 754.286769l-10.953846 62.769231h300.430769l-17.476923-62.769231z" fill="#80CFF5" p-id="3985"></path><path d="M647.138462 837.732923H320.861538c-3.076923 0-5.907692-1.353846-7.876923-3.692308-1.969231-2.338462-2.830769-5.415385-2.215384-8.36923l14.523077-83.446154c0.861538-4.923077 5.169231-8.492308 10.092307-8.492308H624c4.676923 0 8.738462 3.076923 9.969231 7.507692l23.138461 83.446154c0.861538 3.076923 0.246154 6.4-1.723077 8.984616a10.375385 10.375385 0 0 1-8.246153 4.061538z m-313.969231-20.676923h300.430769l-17.476923-62.769231h-272l-10.953846 62.769231z" fill="#1C1B55" p-id="3986"></path><path d="M386.953846 755.763692l-54.153846 61.784616 11.076923-61.784616z" fill="#D4F1FF" p-id="3987"></path><path d="M855.630769 580.625231l24.861539 265.969231c0.369231 4.061538-2.584615 7.753846-6.769231 8.123076H686.153846l138.707692-17.723076c17.476923-2.215385 30.646154-17.107692 30.646154-34.83077v-221.538461z" fill="#80CFF5" p-id="3988"></path><path d="M840.369231 591.876923h-28.676923v-25.476923h28.676923v25.476923z m-45.538462 0h-30.892307v-25.476923h30.892307v25.476923z m-47.876923 0h-30.892308v-25.476923h30.892308v25.476923z m-47.876923 0h-30.892308v-25.476923H699.076923v25.476923z m-47.876923 0H620.307692v-25.476923h30.892308v25.476923z m-47.876923 0h-30.892308v-25.476923h30.892308v25.476923z m-47.753846 0h-30.892308v-25.476923h30.892308v25.476923z m-47.876923 0h-30.892308v-25.476923h30.892308v25.476923z m-47.876923 0h-30.892308v-25.476923h30.892308v25.476923z m-47.876923 0h-30.892308v-25.476923h30.892308v25.476923z m-47.876924 0h-30.892307v-25.476923h30.892307v25.476923z m-47.753846 0h-30.892307v-25.476923H316.307692v25.476923z m-47.876923 0H237.538462v-25.476923h30.892307v25.476923z m-47.876923 0h-30.892308v-25.476923h30.892308v25.476923z m-47.876923 0h-30.769231v-25.476923h30.892308v25.476923zM839.384615 634.461538h-30.76923v-25.476923h30.76923v25.476923z m-47.753846 0h-30.892307v-25.476923h30.892307v25.476923z m-47.876923 0h-30.892308v-25.476923h30.892308v25.476923z m-47.876923 0h-30.892308v-25.476923h30.892308v25.476923z m-47.876923 0h-30.892308v-25.476923h30.892308v25.476923z m-47.876923 0h-30.892308v-25.476923h30.892308v25.476923z m-47.753846 0h-30.892308v-25.476923h30.892308v25.476923z m-47.876923 0h-30.892308v-25.476923h30.892308v25.476923z m-47.876923 0h-30.892308v-25.476923H456.615385v25.476923z m-47.876923 0H377.846154v-25.476923h30.892308v25.476923z m-47.876924 0h-30.892307v-25.476923h30.892307v25.476923z m-47.753846 0h-30.892307v-25.476923h30.892307v25.476923z m-47.876923 0h-30.892307v-25.476923h30.892307v25.476923z m-47.876923 0h-30.892308v-25.476923h30.892308v25.476923z m-47.876923 0h-30.769231v-25.476923h30.892308v25.476923zM838.4 676.923077h-30.892308v-25.476923h30.892308V676.923077z m-47.876923 0h-30.892308v-25.476923h30.892308V676.923077z m-47.876923 0h-30.892308v-25.476923h30.892308V676.923077z m-47.876923 0h-30.892308v-25.476923h30.892308V676.923077z m-47.753846 0h-30.892308v-25.476923h30.892308V676.923077z m-47.876923 0h-30.892308v-25.476923h30.892308V676.923077z m-47.876924 0h-30.892307v-25.476923h30.892307V676.923077z m-47.876923 0h-30.76923v-25.476923h30.76923V676.923077z m-47.876923 0H424.615385v-25.476923h30.892307V676.923077z m-47.753846 0h-30.892308v-25.476923h30.892308V676.923077z m-47.876923 0h-30.892308v-25.476923h30.892308V676.923077z m-47.876923 0h-30.892308v-25.476923h30.892308V676.923077z m-47.876923 0h-30.892308v-25.476923h30.892308V676.923077z m-47.876923 0h-30.769231v-25.476923h30.892308V676.923077z m-47.753846 0h-30.892308v-25.476923h30.892308V676.923077zM396.061538 719.507692h-30.892307v-25.476923h30.892307v25.476923z m-47.876923 0h-30.892307v-25.476923h30.892307v25.476923z m-47.876923 0h-30.892307v-25.476923H300.307692v25.476923z m-47.876923 0H221.538462v-25.476923h30.892307v25.476923z m-47.876923 0h-30.769231v-25.476923h30.892308v25.476923z m-47.753846 0h-30.892308v-25.476923h30.892308v25.476923zM846.523077 719.507692h-30.892308v-25.476923h30.892308v25.476923z m-47.876923 0h-30.892308v-25.476923h30.892308v25.476923z m-47.876923 0h-30.892308v-25.476923H750.769231v25.476923z m-47.876923 0H672v-25.476923h30.892308v25.476923z m-47.876923 0h-30.892308v-25.476923h30.892308v25.476923z m-47.753847 0h-30.892307v-25.476923h30.892307v25.476923zM414.892308 692.923077h146.584615v25.476923H414.892308z" fill="#1C1B55" p-id="3989"></path><path d="M835.569231 240.984615l-8.738462 262.769231c-0.246154 8-6.892308 14.4-14.892307 14.4H590.153846l245.415385-277.169231z" fill="#D4F1FF" p-id="3990"></path><path d="M464.189538 433.890462h-97.846153c-7.015385 0-12.8-5.661538-12.8-12.8s5.661538-12.8 12.8-12.8h85.046153v-158.276924h-85.046153c-7.015385 0-12.8-5.661538-12.8-12.8s5.784615-12.8 12.8-12.8h97.846153c7.015385 0 12.8 5.661538 12.8 12.8v183.876924c0 7.015385-5.784615 12.8-12.8 12.8z" fill="#1C1B55" p-id="3991"></path><path d="M447.820308 298.505846h-19.2v-25.476923h19.2v25.476923z m-22.4 0h-19.076923v-25.476923h19.2v25.476923z m-22.276923 0h-19.2v-25.476923h19.2v25.476923zM447.820308 341.090462h-19.2v-25.6h19.2v25.6z m-22.4 0h-19.076923v-25.6h19.2v25.6z m-22.276923 0h-19.2v-25.6h19.2v25.6zM447.820308 383.552h-19.2v-25.476923h19.2v25.476923z m-22.4 0h-19.076923v-25.476923h19.2v25.476923z m-22.276923 0h-19.2v-25.476923h19.2v25.476923z" fill="#1C1B55" p-id="3992"></path><path d="M247.574154 246.075077l135.507692-27.076923v212.307692l-135.507692-23.384615z" fill="#80CFF5" p-id="3993"></path><path d="M395.881846 459.244308c-0.738462 0-1.476923-0.123077-2.215384-0.246154l-161.107693-27.938462c-6.153846-1.107692-10.584615-6.4-10.584615-12.553846v-182.892308c0-6.030769 4.307692-11.323077 10.215384-12.553846l161.107693-32.123077c3.692308-0.738462 7.630769 0.246154 10.584615 2.707693 2.953846 2.461538 4.676923 6.030769 4.676923 9.846154v243.076923c0 3.815385-1.723077 7.384615-4.553846 9.723077-2.215385 1.969231-5.169231 2.953846-8.123077 2.953846z m-148.307692-51.323077l135.507692 23.507692v-212.430769l-135.507692 27.076923v161.846154z" fill="#1C1B55" p-id="3994"></path><path d="M293.235692 363.490462h-0.246154c-3.076923-0.123077-5.784615-2.215385-6.76923-5.046154l-16.984616-51.446154c-1.353846-3.938462 0.861538-8.123077 4.676923-9.353846 3.938462-1.230769 8.123077 0.861538 9.353847 4.676923l10.830769 32.615384 14.153846-33.230769c1.107692-2.707692 3.815385-4.553846 6.892308-4.553846 2.953846 0 5.661538 1.846154 6.892307 4.553846l14.153846 33.723077 12.8-36.430769c1.353846-3.938462 5.661538-5.907692 9.476924-4.553846 3.938462 1.353846 5.907692 5.661538 4.553846 9.476923l-19.2 54.523077c-0.984615 2.953846-3.692308 4.923077-6.769231 4.923077-3.076923 0.123077-5.907692-1.723077-7.138462-4.553847l-14.76923-35.076923-15.015385 35.2c-1.107692 2.707692-3.815385 4.553846-6.892308 4.553847z" fill="#FFFFFF" p-id="3995"></path><path d="M804.061538 343.630769v-79.630769c-99.815385 0-165.538462 49.846154-215.507692 115.938462 20.184615-94.4 75.815385-172.8 215.507692-191.876924V110.646154l137.107693 112.861538-137.107693 120.123077z" fill="#FFF7A6" p-id="3996"></path><path d="M560.246154 456.615385c-2.092308 0-4.184615-0.492308-6.153846-1.353847-6.276923-2.830769-9.723077-9.723077-8.369231-16.492307l13.907692-65.107693c12.430769-58.338462 35.569231-103.753846 70.892308-138.953846 35.815385-35.692308 84.184615-59.815385 143.876923-71.753846V79.138462c0-5.661538 3.323077-10.953846 8.492308-13.415385s11.323077-1.723077 15.630769 1.969231l174.892308 144c3.323077 2.707692 5.292308 6.892308 5.415384 11.2 0.123077 4.307692-1.723077 8.492308-5.046154 11.323077l-174.76923 152.984615c-4.307692 3.815385-10.584615 4.676923-15.876923 2.338462-5.292308-2.338462-8.615385-7.630769-8.615385-13.415385v-80.984615c-63.507692 7.507692-115.446154 40.369231-162.338462 102.523076l-40.123077 53.046154c-2.830769 3.938462-7.261538 5.907692-11.815384 5.907693zM804.061538 110.646154v64.738461c0 7.261538-5.169231 13.415385-12.307692 14.523077-59.2 9.969231-106.338462 32.123077-140.184615 65.846154-31.138462 31.015385-51.692308 71.630769-62.892308 124.184616 56.369231-74.584615 119.876923-111.384615 199.876923-115.569231 4.061538-0.246154 8 1.230769 10.953846 4.061538s4.553846 6.646154 4.553846 10.707693v64.492307l137.107693-120.123077-137.107693-112.861538z" fill="#1C1B55" p-id="3997"></path></svg>