<?xml version="1.0" standalone="no"?><!DOCTYPE svg PUBLIC "-//W3C//DTD SVG 1.1//EN" "http://www.w3.org/Graphics/SVG/1.1/DTD/svg11.dtd"><svg t="1697737758480" class="icon" viewBox="0 0 1024 1024" version="1.1" xmlns="http://www.w3.org/2000/svg" p-id="4508" xmlns:xlink="http://www.w3.org/1999/xlink" width="200" height="200"><path d="M768 536.615385h97.230769v301.538461h-97.230769z" fill="#80CFF5" p-id="4509"></path><path d="M865.230769 838.153846h-97.230769V536.615385h97.230769v301.538461z m-96-1.230769h94.769231V537.846154h-94.769231v299.076923z" fill="#979797" p-id="4510"></path><path d="M850.461538 856.615385h-65.230769c-17.6 0-32-14.4-32-32V548.923077c0-17.6 14.4-32 32-32h65.230769c17.6 0 32 14.4 32 32v275.692308c0 17.6-14.4 32-32 32z m-65.230769-310.153847c-1.353846 0-2.461538 1.107692-2.461538 2.461539v275.692308c0 1.353846 1.107692 2.461538 2.461538 2.461538h65.230769c1.353846 0 2.461538-1.107692 2.461539-2.461538V548.923077c0-1.353846-1.107692-2.461538-2.461539-2.461539h-65.230769z" fill="#1C1B55" p-id="4511"></path><path d="M774.276923 598.276923h82.092308v29.538462h-82.092308z" fill="#1C1B55" p-id="4512"></path><path d="M783.015385 567.630769l69.784615-6.030769v-14.4h-69.784615z" fill="#D4F1FF" p-id="4513"></path><path d="M321.353846 563.323077l-28.8-6.523077 5.661539-25.230769 28.8 6.523077-5.661539 25.230769z m385.230769-21.784615L694.153846 509.415385l27.569231-10.707693 12.430769 32.123077-27.569231 10.707693zM333.538462 509.292308l-28.8-6.523077 7.507692-33.6 28.8 6.523077-7.507692 33.6z m349.907692-27.446154l-12.430769-32.123077 27.56923-10.707692 12.43077 32.123077-27.569231 10.707692zM347.569231 446.769231l-28.8-6.4 7.507692-33.6 28.8 6.523077-7.507692 33.476923z m312.861538-24.615385l-12.430769-32.123077 27.569231-10.707692 12.430769 32.123077-27.569231 10.707692z m-298.830769-37.784615l-28.8-6.523077 7.507692-33.6 28.8 6.523077-7.507692 33.6z m275.692308-21.907693l-12.43077-32.123076 27.569231-10.707693 12.430769 32.123077-27.56923 10.707692z m-261.661539-40.492307l-28.8-6.523077 8.369231-37.292308h19.815385v16.615385l6.4 1.476923-5.784616 25.723077zM626.215385 307.692308h-29.538462v-29.538462H636.307692l5.415385 14.030769-15.507692 6.03077v9.476923z m-59.2 0h-34.461539v-29.538462h34.461539v29.538462z m-64 0h-34.461539v-29.538462h34.461539v29.538462z m-64 0h-34.461539v-29.538462h34.461539v29.538462z" fill="#1C1B55" p-id="4514"></path><path d="M290.092308 740.061538L260.923077 698.092308c36.307692-41.6 74.953846-53.661538 115.692308-36.184616 40.861538 17.353846 92.061538 56.861538 153.476923 118.276923 54.892308-65.107692 103.015385-101.907692 144.36923-110.276923 41.353846-8.369231 81.107692 5.661538 119.261539 42.092308l-21.292308 34.215385c-40.984615-21.292308-75.2-26.953846-102.4-16.615385-27.2 10.215385-69.292308 44.430769-126.276923 102.646154h-34.461538c-54.523077-62.523077-95.015385-99.323077-121.353846-110.4-26.338462-11.2-58.953846-5.046154-97.846154 18.215384z" fill="#FFF7A6" p-id="4515"></path><path d="M554.953846 844.553846h-59.076923l-4.430769-6.153846c-48-66.830769-92.307692-102.276923-131.815385-105.230769-25.6-1.969231-44.8 4.676923-58.953846 20.184615l-12.061538 13.415385-45.538462-62.153846 6.892308-8.861539c32.738462-42.092308 76.307692-57.846154 129.723077-47.015384 49.6 10.092308 99.446154 47.261538 148.307692 110.646153h1.723077c32.738462-50.707692 77.046154-84.430769 132.061538-100.061538 29.661538-8.492308 57.107692-8.861538 81.6-1.230769 24.615385 7.630769 46.4 23.507692 64.615385 47.138461l6.892308 8.984616-49.846154 65.846153-10.953846-20.061538c-14.892308-27.323077-47.015385-23.138462-69.907693-17.6-39.384615 9.476923-81.353846 41.969231-124.8 96.615385l-4.430769 5.538461z m-43.938461-29.538461h29.784615c46.153846-56.615385 92.061538-90.707692 136.492308-101.415385 23.876923-5.784615 44.430769-6.153846 61.292307-1.353846 11.076923 3.2 20.553846 8.615385 28.43077 16.246154l10.338461-13.661539c-28.061538-30.769231-63.384615-39.630769-107.692308-27.076923-50.830769 14.4-89.846154 45.169231-119.261538 94.030769l-4.307692 7.138462h-32.984616l-4.430769-5.907692c-45.784615-60.923077-91.2-96.369231-135.015385-105.23077-38.276923-7.753846-68.923077 1.353846-93.415384 27.815385l11.692308 16c18.707692-14.030769 42.092308-19.938462 69.907692-17.846154 48 3.569231 96.738462 40 149.169231 111.261539z" fill="#1C1B55" p-id="4516"></path><path d="M284.307692 167.384615h440.615385c30.646154 0 55.384615 24.738462 55.384615 55.384616s-24.738462 55.384615-55.384615 55.384615H284.307692c-30.646154 0-55.384615-24.738462-55.384615-55.384615s24.738462-55.384615 55.384615-55.384616z" fill="#D4F1FF" p-id="4517"></path><path d="M724.923077 307.692308H284.307692c-46.769231 0-84.923077-38.153846-84.923077-84.923077s38.153846-84.923077 84.923077-84.923077h440.615385c46.769231 0 84.923077 38.153846 84.923077 84.923077s-38.153846 84.923077-84.923077 84.923077zM284.307692 167.384615c-30.523077 0-55.384615 24.861538-55.384615 55.384616s24.861538 55.384615 55.384615 55.384615h440.615385c30.523077 0 55.384615-24.861538 55.384615-55.384615s-24.861538-55.384615-55.384615-55.384616H284.307692z" fill="#1C1B55" p-id="4518"></path><path d="M343.384615 269.538462l344 0.246153c0.738462 0 1.230769 0.492308 1.23077 1.23077v9.230769H341.784615l0.369231-9.476923c0-0.738462 0.492308-1.230769 1.230769-1.230769z" fill="#FDF5A5" p-id="4519"></path><path d="M717.538462 280.615385h-29.538462v-8.615385c0-1.353846-1.107692-2.461538-2.461538-2.461538H344.615385c-1.353846 0-2.461538 1.107692-2.461539 2.461538v8.615385h-29.538461v-8.615385c0-17.6 14.4-32 32-32h340.923077c17.6 0 32 14.4 32 32v8.615385z" fill="#1C1B55" p-id="4520"></path><path d="M288.615385 176h380.307692c9.846154 0 17.846154 8 17.846154 17.846154s-8 17.846154-17.846154 17.846154h-380.307692c-9.846154 0-17.846154-8-17.846154-17.846154s8-17.846154 17.846154-17.846154z" fill="#FFFFFF" p-id="4521"></path><path d="M257.230769 290.584615L211.692308 228.923077l-64.123077 50.092308v555.56923h248l-13.292308-48.738461H211.692308V334.769231z" fill="#80CFF5" p-id="4522"></path><path d="M403.076923 853.661538H123.323077V311.507692c0-21.169231 9.230769-41.107692 25.476923-54.646154l73.969231-62.153846 4.061538 25.846154c3.446154 21.538462 8.861538 31.753846 12.923077 36.676923 6.030769 7.261538 15.138462 13.415385 27.323077 18.338462l25.723077 10.338461-70.523077 47.63077c-5.784615 3.938462-9.230769 10.338462-9.230769 17.353846V771.692308h189.907692v81.96923z m-250.215385-29.538461h220.676924v-23.015385H183.753846V350.769231c0-16.738462 8.246154-32.369231 22.153846-41.846154l27.323077-18.461539c-6.276923-4.430769-11.692308-9.230769-16.123077-14.646153-5.661538-6.769231-10.215385-15.507692-13.661538-26.461539l-35.692308 30.030769c-9.476923 8-14.892308 19.692308-14.892308 32v512.738462z" fill="#1C1B55" p-id="4523"></path><path d="M138.478769 287.197538l23.364923-18.073846 50.459077 65.227077-23.364923 18.073846zM132.003692 378.107077l21.107693-20.662154 58.11323 59.366154-21.107692 20.662154zM126.211692 469.560615l20.886154-20.886153 60.311385 60.310153-20.886154 20.886154zM125.938462 562.812308l21.292307-20.472616 61.504 63.963077-21.292307 20.472616zM126.296615 661.633231l20.672-21.102769 60.317539 59.084307-20.672 21.102769zM124.307692 835.815385h776.615385v29.538461H124.307692zM313.846154 753.230769h46.769231v19.692308h-46.769231zM519.876923 774.523077c-27.2-67.2-65.107692-113.6-112.615385-137.969231-48.369231-24.738462-96.123077-35.815385-141.661538-32.615384l-1.969231-29.415385c50.953846-3.446154 103.876923 8.615385 157.169231 35.815385 54.153846 27.692308 96.738462 79.261538 126.523077 153.230769l-27.446154 10.953846z" fill="#1C1B55" p-id="4524"></path><path d="M551.015385 766.153846l-29.046154-5.538461c6.646154-34.707692 22.892308-66.092308 48.492307-93.292308 24.861538-26.584615 59.692308-50.215385 103.384616-70.276923l0.861538-0.369231 0.861539-0.246154 91.815384-28.8 8.861539 28.184616-90.953846 28.553846c-39.876923 18.338462-71.261538 39.630769-93.415385 63.261538-21.538462 23.015385-35.323077 49.476923-40.861538 78.523077z" fill="#1C1B55" p-id="4525"></path></svg>